<?xml version="1.0" encoding="UTF-8" standalone="no"?>
<!-- Created with Inkscape (http://www.inkscape.org/) -->

<svg
   xmlns:dc="http://purl.org/dc/elements/1.1/"
   xmlns:cc="http://creativecommons.org/ns#"
   xmlns:rdf="http://www.w3.org/1999/02/22-rdf-syntax-ns#"
   xmlns:svg="http://www.w3.org/2000/svg"
   xmlns="http://www.w3.org/2000/svg"
   xmlns:xlink="http://www.w3.org/1999/xlink"
   xmlns:sodipodi="http://sodipodi.sourceforge.net/DTD/sodipodi-0.dtd"
   xmlns:inkscape="http://www.inkscape.org/namespaces/inkscape"
   width="210mm"
   height="297mm"
   viewBox="0 0 744.09448819 1052.3622047"
   id="svg5595"
   version="1.1"
   inkscape:version="0.91 r13725"
   sodipodi:docname="Papierkorb.svg">
  <defs
     id="defs5597">
    <linearGradient
       inkscape:collect="always"
       id="linearGradient6301">
      <stop
         style="stop-color:#ffa200;stop-opacity:1;"
         offset="0"
         id="stop6303" />
      <stop
         style="stop-color:#ffa200;stop-opacity:0;"
         offset="1"
         id="stop6305" />
    </linearGradient>
    <linearGradient
       inkscape:collect="always"
       id="linearGradient6245">
      <stop
         style="stop-color:#ff7400;stop-opacity:1;"
         offset="0"
         id="stop6247" />
      <stop
         style="stop-color:#ff7400;stop-opacity:0;"
         offset="1"
         id="stop6249" />
    </linearGradient>
    <linearGradient
       inkscape:collect="always"
       xlink:href="#linearGradient6301"
       id="linearGradient6937"
       gradientUnits="userSpaceOnUse"
       gradientTransform="matrix(0.86985335,-0.4933104,0.4933104,0.86985335,-511.56541,224.78228)"
       x1="215.16249"
       y1="899.82916"
       x2="224.25388"
       y2="810.93573" />
    <linearGradient
       inkscape:collect="always"
       xlink:href="#linearGradient6245"
       id="linearGradient6944"
       x1="211.12189"
       y1="847.30121"
       x2="235.36554"
       y2="713.96112"
       gradientUnits="userSpaceOnUse"
       gradientTransform="matrix(-0.84364112,-0.53690749,-0.53690749,0.84364112,1272.909,268.62942)" />
    <linearGradient
       inkscape:collect="always"
       xlink:href="#linearGradient6301"
       id="linearGradient6946"
       x1="215.16249"
       y1="899.82916"
       x2="224.25388"
       y2="810.93573"
       gradientUnits="userSpaceOnUse"
       gradientTransform="matrix(-0.84364112,-0.53690749,-0.53690749,0.84364112,1274.6616,267.49154)" />
  </defs>
  <sodipodi:namedview
     id="base"
     pagecolor="#ffffff"
     bordercolor="#666666"
     borderopacity="1.0"
     inkscape:pageopacity="0.0"
     inkscape:pageshadow="2"
     inkscape:zoom="0.35"
     inkscape:cx="1209.9684"
     inkscape:cy="329.95516"
     inkscape:document-units="px"
     inkscape:current-layer="layer1"
     showgrid="false"
     inkscape:window-width="1536"
     inkscape:window-height="803"
     inkscape:window-x="-8"
     inkscape:window-y="-8"
     inkscape:window-maximized="1" />
  <metadata
     id="metadata5600">
    <rdf:RDF>
      <cc:Work
         rdf:about="">
        <dc:format>image/svg+xml</dc:format>
        <dc:type
           rdf:resource="http://purl.org/dc/dcmitype/StillImage" />
        <dc:title></dc:title>
      </cc:Work>
    </rdf:RDF>
  </metadata>
  <g
     inkscape:label="Ebene 1"
     inkscape:groupmode="layer"
     id="layer1">
    <g
       id="g7840"
       transform="matrix(2.183574,0,0,2.183574,1226.1173,-1281.2764)">
      <path
         sodipodi:nodetypes="ccccc"
         inkscape:connector-curvature="0"
         id="path7593"
         d="m -538.82353,678.17072 46.20673,329.54768 205.73278,0.7676 45.23209,-328.94629 z"
         style="fill:#cccccc;fill-rule:evenodd;stroke:none;stroke-width:1.39673412px;stroke-linecap:butt;stroke-linejoin:miter;stroke-opacity:1" />
      <path
         sodipodi:nodetypes="ccccc"
         inkscape:connector-curvature="0"
         id="path7595"
         d="m -532.85715,646.64792 -27.14286,32.85715 337.14284,1.42857 -25.71427,-34.28571 z"
         style="fill:#b3b3b3;fill-rule:evenodd;stroke:none;stroke-width:1.39673412px;stroke-linecap:butt;stroke-linejoin:miter;stroke-opacity:1" />
      <path
         d="m -382.16462,825.86436 a 7.857142,145 0 0 1 -7.22958,155.35196 7.857142,145 0 0 1 -8.43786,-132.9925 7.857142,145 0 0 1 7.18334,-156.0808 7.857142,145 0 0 1 8.47723,132.13712"
         sodipodi:open="true"
         sodipodi:end="6.1977863"
         sodipodi:start="6.208747"
         sodipodi:ry="145"
         sodipodi:rx="7.857142"
         sodipodi:cy="836.64795"
         sodipodi:cx="-390"
         sodipodi:type="arc"
         id="path7597"
         style="opacity:1;fill:#b3b3b3;fill-opacity:1;fill-rule:evenodd;stroke:none;stroke-width:0.40000001;stroke-linecap:square;stroke-linejoin:miter;stroke-miterlimit:4;stroke-dasharray:none;stroke-dashoffset:0;stroke-opacity:1" />
      <path
         transform="matrix(0.99940726,-0.03442558,0.03442556,0.99940726,0,0)"
         d="m -457.21048,812.4857 a 7.857142,145.00002 0 0 1 -7.22959,155.35197 7.857142,145.00002 0 0 1 -8.43786,-132.99251 7.857142,145.00002 0 0 1 7.18334,-156.08082 7.857142,145.00002 0 0 1 8.47723,132.13714"
         sodipodi:open="true"
         sodipodi:end="6.1977863"
         sodipodi:start="6.208747"
         sodipodi:ry="145.00002"
         sodipodi:rx="7.857142"
         sodipodi:cy="823.26929"
         sodipodi:cx="-465.04587"
         sodipodi:type="arc"
         id="path7597-2"
         style="opacity:1;fill:#b3b3b3;fill-opacity:1;fill-rule:evenodd;stroke:none;stroke-width:0.40000001;stroke-linecap:square;stroke-linejoin:miter;stroke-miterlimit:4;stroke-dasharray:none;stroke-dashoffset:0;stroke-opacity:1" />
      <path
         transform="matrix(0.99607729,-0.08848746,0.08848747,0.99607729,0,0)"
         d="m -550.79377,780.39329 a 7.857142,145.00002 0 0 1 -7.22958,155.35197 7.857142,145.00002 0 0 1 -8.43786,-132.99251 7.857142,145.00002 0 0 1 7.18334,-156.08081 7.857142,145.00002 0 0 1 8.47723,132.13713"
         sodipodi:open="true"
         sodipodi:end="6.1977863"
         sodipodi:start="6.208747"
         sodipodi:ry="145.00002"
         sodipodi:rx="7.857142"
         sodipodi:cy="791.17688"
         sodipodi:cx="-558.62915"
         sodipodi:type="arc"
         id="path7597-2-9"
         style="opacity:1;fill:#b3b3b3;fill-opacity:1;fill-rule:evenodd;stroke:none;stroke-width:0.40000001;stroke-linecap:square;stroke-linejoin:miter;stroke-miterlimit:4;stroke-dasharray:none;stroke-dashoffset:0;stroke-opacity:1" />
      <path
         transform="matrix(0.99496389,0.10023397,-0.10023398,0.99496389,0,0)"
         d="m -208.07148,853.28569 a 7.8571424,145 0 0 1 -7.22958,155.35191 7.8571424,145 0 0 1 -8.43786,-132.99245 7.8571424,145 0 0 1 7.18334,-156.0808 7.8571424,145 0 0 1 8.47723,132.13711"
         sodipodi:open="true"
         sodipodi:end="6.1977863"
         sodipodi:start="6.208747"
         sodipodi:ry="145"
         sodipodi:rx="7.8571424"
         sodipodi:cy="864.06927"
         sodipodi:cx="-215.90686"
         sodipodi:type="arc"
         id="path7597-2-6"
         style="opacity:1;fill:#b3b3b3;fill-opacity:1;fill-rule:evenodd;stroke:none;stroke-width:0.40000001;stroke-linecap:square;stroke-linejoin:miter;stroke-miterlimit:4;stroke-dasharray:none;stroke-dashoffset:0;stroke-opacity:1" />
      <path
         transform="matrix(0.99766153,0.06834812,-0.06834813,0.99766153,0,0)"
         d="m -280.45331,849.72343 a 7.857142,145 0 0 1 -7.22959,155.35197 7.857142,145 0 0 1 -8.43786,-132.99251 7.857142,145 0 0 1 7.18334,-156.0808 7.857142,145 0 0 1 8.47723,132.13712"
         sodipodi:open="true"
         sodipodi:end="6.1977863"
         sodipodi:start="6.208747"
         sodipodi:ry="145"
         sodipodi:rx="7.857142"
         sodipodi:cy="860.50702"
         sodipodi:cx="-288.2887"
         sodipodi:type="arc"
         id="path7597-2-0"
         style="opacity:1;fill:#b3b3b3;fill-opacity:1;fill-rule:evenodd;stroke:none;stroke-width:0.40000001;stroke-linecap:square;stroke-linejoin:miter;stroke-miterlimit:4;stroke-dasharray:none;stroke-dashoffset:0;stroke-opacity:1" />
    </g>
  </g>
</svg>
